<svg width="168" height="165" viewBox="0 0 168 165" fill="none" xmlns="http://www.w3.org/2000/svg">
<rect x="1.5" y="1.5" width="165" height="162" rx="28.5" fill="url(#paint0_linear_275_220)" stroke="white" stroke-width="3"/>
<path d="M31.4731 55.7651L63.3046 104.231L63.9543 104.049L66.0101 46.0903L82.4237 41.4924L77.8998 118.287L58.819 123.632L15.0253 60.3726L31.4731 55.7651Z" fill="white"/>
<path d="M107.112 115.693L81.3735 114.215L85.5413 41.6077L111.493 43.0974C118.796 43.5166 125 45.3311 130.104 48.5407C135.209 51.7268 139.024 56.1075 141.55 61.6828C144.099 67.2594 145.157 73.8176 144.724 81.3573C144.29 88.9206 142.487 95.3382 139.315 100.61C136.167 105.883 131.85 109.821 126.366 112.423C120.904 115.026 114.487 116.116 107.112 115.693ZM97.4797 101.944L107.229 102.503C111.767 102.764 115.63 102.179 118.819 100.75C122.032 99.298 124.517 96.9151 126.272 93.6012C128.052 90.265 129.098 85.8906 129.409 80.4781C129.717 75.1129 129.176 70.6831 127.788 67.1887C126.424 63.6957 124.239 61.0567 121.235 59.2718C118.231 57.4868 114.46 56.4641 109.922 56.2036L100.137 55.642L97.4797 101.944Z" fill="white"/>
<defs>
<linearGradient id="paint0_linear_275_220" x1="84" y1="0" x2="84" y2="165" gradientUnits="userSpaceOnUse">
<stop stop-color="#B5FF45"/>
<stop offset="1" stop-color="#447200" stop-opacity="0.88"/>
</linearGradient>
</defs>
</svg>
